<svg width="55" height="56" viewBox="0 0 55 56" fill="none" xmlns="http://www.w3.org/2000/svg"><path d="M28.033.278h-1.065l-1.562 7.336 1.562 7.328h1.065l1.562-7.328L28.033.278z" fill="#CF6D46"/><path d="M28.033 41.256h-1.065l-1.562 7.336 1.562 7.336h1.065l1.562-7.336-1.562-7.336z" fill="#CF6D46"/><path d="M18.486 1.777l-1.002.363 1.042 7.422L22.5 15.92l1.002-.363-1.05-7.422-3.967-6.358z" fill="#CF6D46"/><path d="M32.502 40.278l-1.01.37 1.05 7.423 3.967 6.358 1.002-.363-1.042-7.422-3.967-6.366z" fill="#CF6D46"/><path d="M10.024 6.447l-.82.686 3.525 6.618 5.908 4.615.813-.687-3.518-6.618-5.909-4.614z" fill="#CF6D46"/><path d="M36.36 37.833l-.813.686 3.518 6.626 5.908 4.614.82-.686-3.526-6.618-5.908-4.622z" fill="#CF6D46"/><path d="M3.67 13.727l-.537.923 5.569 5.017 7.13 2.319.537-.923-5.577-5.017-7.123-2.319z" fill="#CF6D46"/><path d="M39.161 34.22l-.536.923 5.569 5.017 7.13 2.311.537-.923-5.569-5.009-7.13-2.319z" fill="#CF6D46"/><path d="M.185 22.743l-.181 1.05 6.95 2.807 7.493-.26.189-1.049-6.957-2.808-7.494.26z" fill="#CF6D46"/><path d="M40.549 29.858l-.19 1.057 6.957 2.8 7.486-.26.19-1.049-6.95-2.808-7.493.26z" fill="#CF6D46"/><path d="M.004 32.406l.181 1.05 7.494.26 6.957-2.8-.19-1.058-7.493-.26-6.95 2.808z" fill="#CF6D46"/><path d="M40.36 25.291l.189 1.05 7.493.26 6.95-2.809-.19-1.049-7.486-.26-6.957 2.808z" fill="#CF6D46"/><path d="M3.133 41.548l.528.923 7.131-2.311 5.577-5.017-.537-.923-7.13 2.32-5.57 5.008z" fill="#CF6D46"/><path d="M38.625 21.063l.536.923 7.131-2.32 5.569-5.016-.536-.923-7.131 2.32-5.569 5.016z" fill="#CF6D46"/><path d="M9.203 49.073l.82.686 5.909-4.614 3.518-6.626-.82-.686-5.901 4.622-3.526 6.618z" fill="#CF6D46"/><path d="M35.547 17.68l.812.686 5.908-4.615 3.526-6.618-.82-.686-5.908 4.614-3.518 6.618z" fill="#CF6D46"/><path d="M17.477 54.066l1.01.363 3.967-6.358 1.049-7.422-1.01-.37-3.967 6.365-1.05 7.422z" fill="#CF6D46"/><path d="M31.492 15.557l1.002.363 3.975-6.358 1.042-7.422-1.002-.363-3.968 6.358-1.049 7.422z" fill="#CF6D46"/></svg>